<svg width="277" height="260" viewBox="0 0 277 260" fill="none" xmlns="http://www.w3.org/2000/svg">
<path d="M0 145.151L71.7363 65.9982L26.0859 145.151L71.7363 217.824L0 145.151Z" fill="#079C93"/>
<path d="M276.984 144.997L205.248 65.8439L250.898 144.997L205.248 217.67L276.984 144.997Z" fill="#079C93"/>
<path d="M151.634 52.2878L172.385 18.9409L188.248 8.80489L172.649 43.1115L180.141 36.4173L166.26 73.8383L127.863 258.482L100.121 253.315L98.2471 205.459C99.2956 208.498 102.676 216.785 107.808 225.625C112.941 234.464 124.596 211.739 129.782 199.271L153.25 86.4177L143.271 92.5016L161.053 48.8942L151.634 52.2878Z" fill="#079C93"/>
</svg>
