<svg width="150" height="150" viewBox="0 0 150 150" fill="none" xmlns="http://www.w3.org/2000/svg">
<path d="M0 83.7411L38.8464 38.0759L14.126 83.7411L38.8464 125.668L0 83.7411Z" fill="#079C93"/>
<path d="M149.991 83.6521L111.145 37.9869L135.866 83.6521L111.145 125.579L149.991 83.6521Z" fill="#079C93"/>
<path d="M82.1121 30.166L93.3495 10.9274L101.939 5.07974L93.4925 24.872L97.5492 21.01L90.0324 42.599L69.24 149.124L54.2171 146.144L53.2024 118.534C53.7702 120.287 55.6006 125.069 58.38 130.168C61.1594 135.268 67.4708 122.157 70.2791 114.964L82.9873 49.8564L77.5837 53.3663L87.2128 28.2082L82.1121 30.166Z" fill="#079C93"/>
</svg>
